<svg xmlns="http://www.w3.org/2000/svg" width="17" height="17" viewBox="0 0 17 17">
  <path fill="#4D4D4D" d="M8.5,6.99737845 L15.1862121,0.31119544 C15.6011514,-0.103742045 16.2738893,-0.103730315 16.688814,0.311221642 C17.1037389,0.726173605 17.1037271,1.39893191 16.6887879,1.81386942 L10.0026281,8.50000001 L16.6887879,15.1861306 C17.1037271,15.6010681 17.1037389,16.2738264 16.688814,16.6887784 C16.2738893,17.1037303 15.6011514,17.1037421 15.1862121,16.6888045 L8.5,10.0026216 L1.81378785,16.6888045 C1.39884856,17.1037421 0.726110768,17.1037303 0.311185945,16.6887784 C-0.103738883,16.2738264 -0.103727147,15.6010681 0.311212146,15.1861306 L6.99737186,8.50000001 L0.311212146,1.81386942 C-0.103727147,1.39893191 -0.103738883,0.726173605 0.311185945,0.311221642 C0.726110768,-0.103730315 1.39884856,-0.103742045 1.81378785,0.31119544 L8.5,6.99737845 Z"/>
</svg>
